# File created by Blade
# Date/Time:  Wed Jan 21 16:14:13 2015
# Frame Rate: 120.000 fps
#------------------------------------------------------
:FULLY-SPECIFIED
:DEGREES
558
root 18.825677 35.639193 -19.242741 -170.641351 -5.163103 -179.183075
Spine -18.937066 -0.167316 -0.418788
Head 7.848283 -4.002584 -0.510406
LeftShoulder -5.322878 -37.055535 15.879360
LeftArm 12.542289 14.609054 -6.392802
LeftForeArm 15.424633 -0.000000 -1.719815
LeftHand -9.939821 -0.000000 -3.978900
LeftHandThumb1 -26.253704 0.000000 33.147579
RightShoulder -7.758987 0.746341 -11.464682
RightArm 8.295901 38.712292 9.503889
RightForeArm -34.707534 -0.000000 2.509049
RightHand -4.134712 -0.000000 9.312583
RightHandThumb1 -24.326973 -0.000000 -32.862282
LeftUpLeg -4.256013 6.325142 0.196090
LeftLeg -4.076209 -0.000000 0.000000
LeftFoot -19.486535 25.052984 -11.427144
LeftToeBase 27.006450 -0.000000 -0.000000
RightUpLeg -4.096998 -10.120565 2.719685
RightLeg -2.414879 -0.000000 0.000000
RightFoot -20.766720 -26.942422 14.128347
RightToeBase 23.622791 -0.000000 -0.000000
559
root 18.829032 35.637118 -19.260953 -170.617924 -5.180023 -179.186526
Spine -18.988417 -0.171922 -0.411824
Head 7.900073 -3.975794 -0.633380
LeftShoulder -5.433222 -37.052008 15.919581
LeftArm 12.407575 14.559847 -6.382278
LeftForeArm 15.389492 -0.000000 -1.720902
LeftHand -9.940771 -0.000000 -3.895137
LeftHandThumb1 -26.253704 0.000000 33.147579
RightShoulder -7.840440 0.728906 -11.437676
RightArm 8.225095 38.825416 9.479728
RightForeArm -34.706902 -0.000000 2.496407
RightHand -4.157612 -0.000000 9.301918
RightHandThumb1 -24.326973 -0.000000 -32.862282
LeftUpLeg -4.229846 6.312812 0.209534
LeftLeg -4.116115 -0.000000 0.000000
LeftFoot -19.506947 25.014308 -11.449462
LeftToeBase 27.043458 -0.000000 -0.000000
RightUpLeg -4.071893 -10.113185 2.725584
RightLeg -2.451099 -0.000000 0.000000
RightFoot -20.773387 -26.980775 14.105991
RightToeBase 23.538762 -0.000000 -0.000000
560
root 18.830580 35.634796 -19.277134 -170.605554 -5.181862 -179.182051
Spine -19.024549 -0.160528 -0.387482
Head 7.946135 -3.985762 -0.783069
LeftShoulder -5.546386 -37.013059 15.946173
LeftArm 12.278366 14.424576 -6.377795
LeftForeArm 15.418227 0.000000 -1.741960
LeftHand -9.908467 -0.000000 -3.947195
LeftHandThumb1 -26.253704 0.000000 33.147579
RightShoulder -7.884543 0.748057 -11.430224
RightArm 8.089789 38.873191 9.421719
RightForeArm -34.680384 0.000000 2.510013
RightHand -4.257457 -0.000000 9.333397
RightHandThumb1 -24.326973 -0.000000 -32.862282
LeftUpLeg -4.202124 6.319775 0.220266
LeftLeg -4.143767 -0.000000 0.000000
LeftFoot -19.536840 25.002608 -11.476581
LeftToeBase 27.064398 -0.000000 -0.000000
RightUpLeg -4.055017 -10.077760 2.730586
RightLeg -2.455878 -0.000000 0.000000
RightFoot -20.795758 -27.016457 14.083971
RightToeBase 23.526614 -0.000000 -0.000000
561
root 18.840610 35.632790 -19.291648 -170.548589 -5.171667 -179.140721
Spine -19.123290 -0.138415 -0.356341
Head 8.009852 -3.983590 -0.880695
LeftShoulder -5.644599 -36.959941 16.000094
LeftArm 12.146296 14.376034 -6.364538
LeftForeArm 15.418765 -0.000000 -1.763838
LeftHand -9.944658 -0.000000 -3.841361
LeftHandThumb1 -26.253704 0.000000 33.147579
RightShoulder -7.937492 0.761855 -11.408474
RightArm 7.971422 38.940486 9.398735
RightForeArm -34.571168 -0.000000 2.533781
RightHand -4.336485 0.000000 9.342033
RightHandThumb1 -24.326973 -0.000000 -32.862282
LeftUpLeg -4.228500 6.353208 0.280312
LeftLeg -4.159975 -0.000000 0.000000
LeftFoot -19.576039 24.939908 -11.481184
LeftToeBase 27.080712 -0.000000 -0.000000
RightUpLeg -3.881225 -9.468754 2.728738
RightLeg -2.835340 -0.000000 0.000000
RightFoot -20.732192 -27.536803 14.218423
RightToeBase 23.528947 -0.000000 -0.000000
562
root 18.841718 35.631868 -19.306334 -170.490691 -5.170846 -179.146406
Spine -19.218934 -0.146712 -0.350764
Head 8.060681 -3.964621 -0.989217
LeftShoulder -5.777485 -36.919660 16.053707
LeftArm 12.033913 14.208816 -6.367361
LeftForeArm 15.442447 -0.000000 -1.811691
LeftHand -9.908133 -0.000000 -3.873972
LeftHandThumb1 -26.253704 0.000000 33.147579
RightShoulder -8.016374 0.719616 -11.372138
RightArm 7.947977 39.017845 9.403923
RightForeArm -34.609135 -0.000000 2.530344
RightHand -4.363156 -0.000000 9.327220
RightHandThumb1 -24.326973 -0.000000 -32.862282
LeftUpLeg -4.275904 6.444950 0.262322
LeftLeg -4.142244 -0.000000 0.000000
LeftFoot -19.596360 24.866784 -11.485512
LeftToeBase 27.118631 -0.000000 -0.000000
RightUpLeg -3.892701 -9.343912 2.718207
RightLeg -2.872714 -0.000000 0.000000
RightFoot -20.778211 -27.643452 14.247668
RightToeBase 23.557577 -0.000000 -0.000000
563
root 18.841874 35.629517 -19.324635 -170.478154 -5.160834 -179.141798
Spine -19.255916 -0.161405 -0.325742
Head 8.091534 -3.946932 -1.094614
LeftShoulder -5.950939 -36.908430 16.139774
LeftArm 11.904775 14.106470 -6.376697
LeftForeArm 15.489884 0.000000 -1.798533
LeftHand -9.965879 -0.000000 -3.945165
LeftHandThumb1 -26.253704 0.000000 33.147579
RightShoulder -8.078455 0.730171 -11.327256
RightArm 7.960247 38.944479 9.373431
RightForeArm -34.494720 -0.000000 2.403338
RightHand -4.326124 0.000000 9.208128
RightHandThumb1 -24.326973 -0.000000 -32.862282
LeftUpLeg -4.242904 6.487674 0.266856
LeftLeg -4.176930 -0.000000 0.000000
LeftFoot -19.631595 24.837517 -11.503535
LeftToeBase 27.157425 -0.000000 -0.000000
RightUpLeg -3.879152 -9.349760 2.726444
RightLeg -2.874927 -0.000000 0.000000
RightFoot -20.791934 -27.652126 14.231185
RightToeBase 23.567431 -0.000000 -0.000000
